<svg width="34" height="35" viewBox="0 0 34 35" fill="none" xmlns="http://www.w3.org/2000/svg">
<path d="M31.8001 17.3947C31.8001 16.1671 31.6991 15.2713 31.4805 14.3423H17.2637V19.883H25.6086C25.4404 21.2599 24.5319 23.3336 22.5129 24.727L22.4846 24.9125L26.9797 28.346L27.2911 28.3767C30.1512 25.7722 31.8001 21.9401 31.8001 17.3947Z" fill="#4285F4"/>
<path d="M17.2626 31.9933C21.3509 31.9933 24.783 30.6661 27.29 28.3769L22.5118 24.7271C21.2332 25.6064 19.517 26.2202 17.2626 26.2202C13.2584 26.2202 9.85982 23.6157 8.64834 20.0159L8.47076 20.0307L3.79672 23.5974L3.7356 23.765C6.2256 28.6422 11.3403 31.9933 17.2626 31.9933Z" fill="#34A853"/>
<path d="M8.64922 20.0159C8.32955 19.0869 8.14456 18.0915 8.14456 17.063C8.14456 16.0344 8.32956 15.0391 8.6324 14.1101L8.62393 13.9123L3.8913 10.2883L3.73646 10.361C2.71021 12.3849 2.12134 14.6576 2.12134 17.063C2.12134 19.4684 2.71021 21.7411 3.73646 23.765L8.64922 20.0159Z" fill="#FBBC05"/>
<path d="M17.2626 7.90579C20.106 7.90579 22.0239 9.11679 23.1176 10.1288L27.391 6.01467C24.7665 3.60925 21.351 2.13281 17.2626 2.13281C11.3403 2.13281 6.22562 5.48379 3.7356 10.361L8.63155 14.1102C9.85986 10.5103 13.2584 7.90579 17.2626 7.90579Z" fill="#EB4335"/>
</svg>
